<svg 
id="529bae44-0f68-40a8-9bcd-2a10b56494be" 
data-name="Layer 1" 
xmlns="http://www.w3.org/2000/svg" 
viewBox="0 0 388.71 408.89">
<title>reblog</title>
<path 
d="M773,279.89H491.71V231.11a10.47,10.47,0,0,0-5.93,1.71l-87,60.92c-3.27,2.28-3.27,6,0,8.3l87,60.92a10.47,10.47,0,0,0,5.93,1.71V315.89H749V517a12,12,0,0,0,12,12h12a12,12,0,0,0,12-12V291.89A12,12,0,0,0,773,279.89Z" 
transform="translate(-396.29 -231.11)" 
style="fill:#C6C6C6;fill-rule:evenodd"/>
<path 
d="M408.29,591.22H689.58V640a10.47,10.47,0,0,0,5.93-1.71l87-60.92c3.27-2.28,3.27-6,0-8.31l-87-60.91a10.47,10.47,0,0,0-5.93-1.71v48.78H432.29V354.11a12,12,0,0,0-12-12h-12a12,12,0,0,0-12,12V579.22A12,12,0,0,0,408.29,591.22Z" 
transform="translate(-396.29 -231.11)" 
style="fill:#C6C6C6;fill-rule:evenodd"/>
</svg>