<svg id="5db3eb22-6a8a-4ad0-ac79-b84c35454a68" data-name="Layer 2" xmlns="http://www.w3.org/2000/svg" viewBox="0 0 482.01 482.01"><title>compass</title><circle cx="241" cy="241" r="221" style="fill:none;stroke:#919aa7;stroke-miterlimit:10;stroke-width:40px"/><path d="M1285,417" transform="translate(-420.97 -161.75)" style="fill:#4d4d4d"/><path d="M781.59,267.4,597.47,318.54a13.67,13.67,0,0,0-8.72,3.8,11.36,11.36,0,0,0-1.82,1.74,15.3,15.3,0,0,0-2.33,4.55,24.62,24.62,0,0,0-1.39,6.16q-26.48,95.54-53,191.07a14.63,14.63,0,0,0,12.4,13.7l184.12-51.14a13.67,13.67,0,0,0,8.72-3.8,10.49,10.49,0,0,0,1.82-1.73,15,15,0,0,0,2.33-4.56,24.18,24.18,0,0,0,1.39-6.16q26.49-95.54,53-191.07A14.64,14.64,0,0,0,781.59,267.4ZM662,423.68a20.64,20.64,0,1,1,20.64-20.63A20.63,20.63,0,0,1,662,423.68Z" transform="translate(-420.97 -161.75)" style="fill:#919aa7"/></svg>