<svg id="b01bdd85-9824-417c-aeb7-3709cc2153ee" data-name="Layer 2" xmlns="http://www.w3.org/2000/svg" viewBox="0 0 425.9 82.88"><title>rumblttt</title><path d="M542.23,393.55c1.52-1.44,2.92-2.71,4.22-3.82a18.63,18.63,0,0,1,3.53-2.45,12.62,12.62,0,0,1,6.27-1.71,9.28,9.28,0,0,1,2.57.35,12.78,12.78,0,0,1,2.33.91,12.22,12.22,0,0,1,1.89,1.54,7,7,0,0,1,1.42,2.11,8,8,0,0,1,1,2.39,11.82,11.82,0,0,1,.28,2.62,10.85,10.85,0,0,1-.51,3.31,9.05,9.05,0,0,1-1.77,3.08,7.3,7.3,0,0,1-2.73,2.05,9.63,9.63,0,0,1-3.76.68h-1a4.3,4.3,0,0,1-1-.11c-.31-.08-.76-.21-1.37-.4l-2.28-.74c-.53-.15-1-.27-1.37-.34a5,5,0,0,0-1-.12,5.72,5.72,0,0,0-2,.46,19.55,19.55,0,0,0-2.79,1.37v21.66a21.35,21.35,0,0,0,.11,2.45,4.2,4.2,0,0,0,.35,1.31,2.37,2.37,0,0,0,.56.74,4.21,4.21,0,0,0,.8.51,12.37,12.37,0,0,0,1.48.23,23.85,23.85,0,0,0,2.63.11l2.39-.11v10.72H518.18V431.63H521a12.81,12.81,0,0,0,2.5,0,7.64,7.64,0,0,0,1.26-.23,4.36,4.36,0,0,0,.74-.45,1.27,1.27,0,0,0,.4-.69,4.58,4.58,0,0,0,.34-1.37,19.23,19.23,0,0,0,.11-2.39V400.85h-8.2V390.13a44.06,44.06,0,0,0,9.29-1.25,56.42,56.42,0,0,0,9.63-3.31l5.13-.11Z" transform="translate(-518.18 -360.72)" style="fill:#fff"/><path d="M594.56,386.37v36.14a24.7,24.7,0,0,0,.17,3.25,10.22,10.22,0,0,0,.4,2,4.56,4.56,0,0,0,.62,1.09,4.78,4.78,0,0,0,1.09,1,3.15,3.15,0,0,0,1.36.62,7.75,7.75,0,0,0,1.71.17,13.29,13.29,0,0,0,2.91-.34,15.35,15.35,0,0,0,3-1,22.37,22.37,0,0,0,2.22-1.2c1.11-.65,2.53-1.54,4.28-2.68V403.47a22.62,22.62,0,0,0-.11-2.28,4.56,4.56,0,0,0-.35-1.48,2,2,0,0,0-.45-1,1.55,1.55,0,0,0-.8-.51,5.23,5.23,0,0,0-1.2-.4,8.85,8.85,0,0,0-2-.17l-3.31-.12V386.83l26.11-.46v39.79a26.16,26.16,0,0,0,.11,2.68,12.31,12.31,0,0,0,.23,1.42,2,2,0,0,0,.51.69q.28.23.63.45a12.31,12.31,0,0,0,1.42.23,21,21,0,0,0,2.46.11l3-.11v10.72l-24.4.57v-6.39a34.66,34.66,0,0,1-4.95,3.25,36.8,36.8,0,0,1-5,2.22,36.06,36.06,0,0,1-5,1.2,30.45,30.45,0,0,1-5,.4,21.12,21.12,0,0,1-3.82-.34,26.17,26.17,0,0,1-3.59-.91,13.09,13.09,0,0,1-3-1.31,13.71,13.71,0,0,1-2.57-2,16.93,16.93,0,0,1-2-2.39,13.43,13.43,0,0,1-1.43-2.74,16.13,16.13,0,0,1-.85-3.42,29,29,0,0,1-.29-4.22v-23c0-1,0-1.8-.06-2.45a3.74,3.74,0,0,0-.28-1.42,1.36,1.36,0,0,0-.46-.74,4.32,4.32,0,0,0-.79-.52,3.31,3.31,0,0,0-1.26-.34,20.41,20.41,0,0,0-2.28-.11l-3.08-.12V386.83Z" transform="translate(-518.18 -360.72)" style="fill:#fff"/><path d="M670.48,392.87c1.6-1.14,3.21-2.18,4.84-3.14a25.53,25.53,0,0,1,5-2.22q.91-.35,1.71-.57t1.71-.45a27.62,27.62,0,0,1,3.42-.69,26.2,26.2,0,0,1,3.42-.23,23,23,0,0,1,3.2.23,14.6,14.6,0,0,1,3.07.8,16.48,16.48,0,0,1,2.85,1.08,10.33,10.33,0,0,1,2.17,1.43,15.11,15.11,0,0,1,2,1.88,17.1,17.1,0,0,1,1.77,2.34,43.13,43.13,0,0,1,5.24-3.54A34.39,34.39,0,0,1,716,387.4a30.5,30.5,0,0,1,5-1.37,28.32,28.32,0,0,1,5-.46,22.2,22.2,0,0,1,4.27.4,15.55,15.55,0,0,1,3.82,1.31,15.33,15.33,0,0,1,5.82,4.34,11,11,0,0,1,1.93,2.85,14.4,14.4,0,0,1,1,3.07,19.39,19.39,0,0,1,.34,2.51q.12,1.49.12,3.42v22.92a19.45,19.45,0,0,0,.11,2.39,4.37,4.37,0,0,0,.34,1.37,2.25,2.25,0,0,0,.57.74,3.92,3.92,0,0,0,.8.51,8,8,0,0,0,1.37.23,24.9,24.9,0,0,0,2.73.11l2.4-.11v10.72H719.16V431.63a18,18,0,0,0,3,0,13,13,0,0,0,1.6-.23,6.94,6.94,0,0,0,.79-.45,1.72,1.72,0,0,0,.57-.69,4.12,4.12,0,0,0,.35-1.31,18.76,18.76,0,0,0,.11-2.22V406.44c0-1.14,0-2.11-.11-2.91a5,5,0,0,0-.35-1.65,3.11,3.11,0,0,0-.74-1.09,4.67,4.67,0,0,0-1.19-.85,4.12,4.12,0,0,0-1.48-.63,8.55,8.55,0,0,0-1.71-.17,15.94,15.94,0,0,0-2.29.17,8.93,8.93,0,0,0-2.39.74,19.86,19.86,0,0,0-3.08,1.54c-1.21.72-2.66,1.65-4.33,2.79v21.55a24.82,24.82,0,0,0,.12,2.74,4.41,4.41,0,0,0,.34,1.48,2,2,0,0,0,.62.74,6.09,6.09,0,0,0,.86.51,8.57,8.57,0,0,0,1.48.23c.76.08,1.75.11,3,.11v10.61H683.7V431.63a19.47,19.47,0,0,0,3.08,0,13,13,0,0,0,1.6-.23,7.53,7.53,0,0,0,.68-.51,2.25,2.25,0,0,0,.57-.74,4.67,4.67,0,0,0,.34-1.48,23.51,23.51,0,0,0,.12-2.63V406.89a23.63,23.63,0,0,0-.23-3.59,7.62,7.62,0,0,0-.57-2.11,5,5,0,0,0-1.71-1.59A5.35,5.35,0,0,0,685,399c-.54,0-1.07,0-1.6.05a10.55,10.55,0,0,0-1.71.29,7.28,7.28,0,0,0-1.65.45c-.57.23-1.16.5-1.77.8-.3.15-.84.46-1.6.91s-1.74,1.11-3,1.94l-1.25.8v21.66a23.55,23.55,0,0,0,.11,2.68,12.31,12.31,0,0,0,.23,1.42,7.63,7.63,0,0,0,.51.69,2.25,2.25,0,0,0,.74.57,6.4,6.4,0,0,0,1.43.34,14.6,14.6,0,0,0,2,.11l1.49-.11v10.72h-32.5V431.63h2.17a16,16,0,0,0,2.79,0,12.2,12.2,0,0,0,1.54-.23,3.92,3.92,0,0,0,.8-.51,1.4,1.4,0,0,0,.46-.74,6.6,6.6,0,0,0,.34-1.54,24.74,24.74,0,0,0,.11-2.57V401h-8.21V390.13a53.87,53.87,0,0,0,9.75-1.54,61.84,61.84,0,0,0,9.07-3l5.24-.11Z" transform="translate(-518.18 -360.72)" style="fill:#fff"/><path d="M780.72,390.7q2.28-1.36,4.33-2.39a27,27,0,0,1,3.87-1.6,26,26,0,0,1,3.6-.85,22.39,22.39,0,0,1,3.59-.29,20.71,20.71,0,0,1,8.6,1.77,22.12,22.12,0,0,1,7.13,5.19,25.36,25.36,0,0,1,5.41,9.35,41.75,41.75,0,0,1,0,24.22,27.38,27.38,0,0,1-5.47,9.52,22.36,22.36,0,0,1-7.93,6,23.32,23.32,0,0,1-9.52,1.94,23.6,23.6,0,0,1-4-.34,35.16,35.16,0,0,1-3.94-.91,16.94,16.94,0,0,1-3.93-1.77,42.12,42.12,0,0,1-4-2.79l-3.07,4.56h-12.2V376.11H755V365.4A56.47,56.47,0,0,0,765.5,364a64.11,64.11,0,0,0,9.75-3.13l5.47-.12Zm0,12.09v16.87c0,1.75,0,3.23.17,4.45a8.1,8.1,0,0,0,.62,2.73,10.09,10.09,0,0,0,1.15,1.77,5.55,5.55,0,0,0,1.71,1.42,6.68,6.68,0,0,0,2.22,1,11,11,0,0,0,2.56.29,8.72,8.72,0,0,0,4.11-1,9.78,9.78,0,0,0,3.19-2.79,16.64,16.64,0,0,0,2.62-5.59,28.22,28.22,0,0,0,.91-7.52,28.73,28.73,0,0,0-.74-6.9,15.72,15.72,0,0,0-2.22-5.19,7.47,7.47,0,0,0-2.79-2.56,7.74,7.74,0,0,0-3.6-.86,11.19,11.19,0,0,0-2.16.23,16.46,16.46,0,0,0-2.39.68,14.83,14.83,0,0,0-2.57,1.26c-.87.53-1.81,1.14-2.79,1.82Z" transform="translate(-518.18 -360.72)" style="fill:#fff"/><path d="M852.42,425.82a24.46,24.46,0,0,0,.12,2.79,5.27,5.27,0,0,0,.22,1.2,2.81,2.81,0,0,0,.63,1,2.71,2.71,0,0,0,1.08.63,8.75,8.75,0,0,0,1.49.23c.75.08,1.74.11,3,.11l2.05-.11v10.72H826.43V431.63h2.17a14.75,14.75,0,0,0,2.67,0,12.2,12.2,0,0,0,1.54-.23,2.67,2.67,0,0,0,.92-.57,3.39,3.39,0,0,0,.57-.8,4.81,4.81,0,0,0,.34-1.48c.07-.68.11-1.55.11-2.62V376.11h-8.32V365.4a61.11,61.11,0,0,0,10.2-1.37,70.28,70.28,0,0,0,10.43-3.19l5.36-.12Z" transform="translate(-518.18 -360.72)" style="fill:#fff"/><path d="M891.18,386.83h18v11.85h-18v19.38c0,2.28.06,4.13.17,5.53a12.43,12.43,0,0,0,.51,3,8.66,8.66,0,0,0,1.09,1.66,6.42,6.42,0,0,0,1.54,1.31,8.71,8.71,0,0,0,2.68,1.14,12.7,12.7,0,0,0,3,.34,17.46,17.46,0,0,0,2.9-.23,21.75,21.75,0,0,0,2.91-.68,26.46,26.46,0,0,0,2.79-1.14,32.77,32.77,0,0,0,2.91-1.6v11.74a47.73,47.73,0,0,1-4.67,2.06,24.62,24.62,0,0,1-4.11,1.14,27.28,27.28,0,0,1-4.1.62c-1.45.12-2.93.17-4.45.17a39.87,39.87,0,0,1-4.84-.28,40.69,40.69,0,0,1-4.28-.74,22.84,22.84,0,0,1-3.65-1.66,26.64,26.64,0,0,1-3.19-2.1,20.46,20.46,0,0,1-2.33-2.51,11.52,11.52,0,0,1-1.54-2.62,19.18,19.18,0,0,1-.75-3.37,32.1,32.1,0,0,1-.28-4.5V398.68h-8.44V388a18.34,18.34,0,0,0,4.22-1.6,16.16,16.16,0,0,0,3.42-2.39,21.87,21.87,0,0,0,2.91-3,20.07,20.07,0,0,0,2.22-3.48,29,29,0,0,0,1.6-4.33,33.7,33.7,0,0,0,1-5.25l10.72-.11Z" transform="translate(-518.18 -360.72)" style="fill:#fff"/><path d="M933.7,422.62a12.38,12.38,0,0,1,4,.86A9.84,9.84,0,0,1,941,425.7a9.23,9.23,0,0,1,2.33,3.31,11,11,0,0,1,0,8,10.47,10.47,0,0,1-2.33,3.42,8.61,8.61,0,0,1-3.31,2.11,13.15,13.15,0,0,1-8,0,9.73,9.73,0,0,1-3.42-2.11,11.27,11.27,0,0,1-2.22-3.42,11.13,11.13,0,0,1,0-8,9.84,9.84,0,0,1,2.22-3.31,11.27,11.27,0,0,1,3.42-2.22,10.61,10.61,0,0,1,4-.74Z" transform="translate(-518.18 -360.72)" style="fill:#fff"/></svg>