<svg id="e0b48060-e209-40d9-8911-32e0b266e154" data-name="Layer 2" xmlns="http://www.w3.org/2000/svg" viewBox="0 0 566 388"><title>edit</title><rect width="566" height="388" rx="12" ry="12" style="fill:#4d4d4d"/><path d="M613.23,452.4a19.38,19.38,0,0,0-3.37,9.49l5.17,48.8a10,10,0,0,0,10.91,8.82l48.8-5.17a9.86,9.86,0,0,0,6.31-3.24,9.73,9.73,0,0,0,2.26-2.05L840.8,314.23l-70.09-56.66ZM763.87,281.82a6.61,6.61,0,1,1,10.29,8.31L667.61,421.94a6.61,6.61,0,1,1-10.28-8.31Z" transform="translate(-442.3 -178)" style="fill:#fff"/><path d="M845.61,308.44l19.23-23.79a9.83,9.83,0,0,0-1.27-13.79L808.5,226.35A9.82,9.82,0,0,0,794.75,228l-19.23,23.79Z" transform="translate(-442.3 -178)" style="fill:#fff"/></svg>