

<svg id="logosvg" data-name="Layer 2" xmlns="http://www.w3.org/2000/svg" viewBox="0 0 47.54 56.89"><title>logo</title><path class="logosvg" d="M668.74,345.17c1.52-1.44,2.92-2.72,4.22-3.82a17.88,17.88,0,0,1,3.53-2.45,12.62,12.62,0,0,1,6.27-1.71,9.16,9.16,0,0,1,2.56.34,13.65,13.65,0,0,1,2.34.91,12.25,12.25,0,0,1,1.88,1.54,7.19,7.19,0,0,1,1.43,2.11,8.29,8.29,0,0,1,1,2.4,11.76,11.76,0,0,1,.28,2.62,10.74,10.74,0,0,1-.51,3.3,9,9,0,0,1-1.77,3.08,7.19,7.19,0,0,1-2.73,2.05,9.47,9.47,0,0,1-3.77.69h-1a3.74,3.74,0,0,1-1-.12c-.31-.07-.76-.2-1.37-.4s-1.37-.43-2.28-.74c-.53-.15-1-.26-1.37-.34a5.75,5.75,0,0,0-1-.11,5.91,5.91,0,0,0-2,.45,20.69,20.69,0,0,0-2.79,1.37V378a19.16,19.16,0,0,0,.11,2.45,4.16,4.16,0,0,0,.34,1.31,2.06,2.06,0,0,0,.57.74,3.8,3.8,0,0,0,.8.52,14.89,14.89,0,0,0,1.48.23c.69.07,1.56.11,2.62.11l2.4-.11V394H644.68V383.25h2.85a14.74,14.74,0,0,0,2.51,0,8.92,8.92,0,0,0,1.26-.23,3.79,3.79,0,0,0,.74-.46,1.24,1.24,0,0,0,.4-.68,4.58,4.58,0,0,0,.34-1.37,21.67,21.67,0,0,0,.11-2.39V352.47h-8.21V341.75a44.06,44.06,0,0,0,9.3-1.25,57.3,57.3,0,0,0,9.63-3.31l5.13-.11Z" transform="translate(-644.68 -337.08)" style='fill: #ffffff'/>
</svg>