<svg id="db3a5b73-18af-4cf0-9aed-0b322602f5f8" data-name="Layer 2" xmlns="http://www.w3.org/2000/svg" viewBox="0 0 398 398"><title>message</title><path d="M1285,417" transform="translate(-524 -165)" style="fill:#4d4d4d"/><path d="M723,165c-109.9,0-199,89.1-199,199a198.13,198.13,0,0,0,29.09,103.65L526.55,532.4c-2.62,6.38.58,9.78,7.11,7.56l63.64-21.69A198.14,198.14,0,0,0,723,563c109.9,0,199-89.1,199-199S832.9,165,723,165ZM646,281a23,23,0,1,1-23,23A23,23,0,0,1,646,281Zm84,202A107,107,0,0,1,623,376H837A107,107,0,0,1,730,483Zm85-156a23,23,0,1,1,23-23A23,23,0,0,1,815,327Z" transform="translate(-524 -165)" style="fill:#919aa7"/></svg>